<svg xmlns="http://www.w3.org/2000/svg" width="16" height="16" viewBox="0 0 16 16">
    <g fill="none" fill-rule="evenodd">
        <g fill="#FFF" fill-rule="nonzero">
            <g>
                <path d="M249.609 12.21l.094.082L256 18.59l6.3-6.298c.39-.39 1.02-.39 1.409 0 .359.36.386.926.082 1.317l-.083.094L257.409 20l6.3 6.3c.389.39.388 1.02-.002 1.409-.36.359-.925.386-1.316.082l-.094-.083L256 21.409l-6.3 6.3c-.389.389-1.02.388-1.408-.002-.359-.36-.386-.925-.082-1.316l.083-.094L254.59 20l-6.298-6.3c-.39-.389-.39-1.02 0-1.408.36-.359.926-.386 1.317-.082z" transform="translate(-348 -332) translate(100 320)"/>
            </g>
        </g>
    </g>
</svg>
