<svg xmlns="http://www.w3.org/2000/svg" width="20" height="22" viewBox="0 0 26 22">
    <path fill="#FFF" d="M10 12c1.105 0 2 .895 2 2v6c0 1.105-.895 2-2 2H2c-1.105 0-2-.895-2-2v-6c0-1.105.895-2 2-2h8zm14 0c1.105 0 2 .895 2 2v6c0 1.105-.895 2-2 2h-8c-1.105 0-2-.895-2-2v-6c0-1.105.895-2 2-2h8zm-14 1H2c-.513 0-.936.386-.993.883L1 14v6c0 .513.386.936.883.993L2 21h8c.513 0 .936-.386.993-.883L11 20v-6c0-.552-.448-1-1-1zm14 0h-8c-.513 0-.936.386-.993.883L15 14v6c0 .513.386.936.883.993L16 21h8c.513 0 .936-.386.993-.883L25 20v-6c0-.552-.448-1-1-1zM10 0c1.105 0 2 .895 2 2v6c0 1.105-.895 2-2 2H2c-1.105 0-2-.895-2-2V2C0 .895.895 0 2 0h8zm14 0c1.105 0 2 .895 2 2v6c0 1.105-.895 2-2 2h-8c-1.105 0-2-.895-2-2V2c0-1.105.895-2 2-2h8zM10 1H2c-.513 0-.936.386-.993.883L1 2v6c0 .513.386.936.883.993L2 9h8c.513 0 .936-.386.993-.883L11 8V2c0-.552-.448-1-1-1zm14 0h-8c-.513 0-.936.386-.993.883L15 2v6c0 .513.386.936.883.993L16 9h8c.513 0 .936-.386.993-.883L25 8V2c0-.552-.448-1-1-1z"/>
</svg>
